<svg width="13" height="25" viewBox="0 0 13 25" fill="none" xmlns="http://www.w3.org/2000/svg">
<path d="M12.7501 0.335182L9.1083 0.262241C8.39975 0.245758 7.69492 0.365391 7.03487 0.61417C6.37482 0.86295 5.7728 1.2359 5.26394 1.71123C4.75508 2.18657 4.34953 2.75478 4.07103 3.38273C3.79253 4.01067 3.64664 4.68577 3.64182 5.36862V8.70236H0.249821C0.182868 8.70425 0.119342 8.73123 0.0726912 8.77754C0.0260401 8.82385 -2.89533e-05 8.88585 2.41319e-08 8.95039V13.1376C2.41319e-08 13.2015 0.0262966 13.2627 0.0731533 13.3078C0.12001 13.353 0.183556 13.3783 0.249821 13.3783H3.64182V23.9777C3.64182 24.0416 3.66811 24.1028 3.71497 24.148C3.76183 24.1931 3.82537 24.2185 3.89164 24.2185H8.38148C8.44775 24.2185 8.5113 24.1931 8.55815 24.148C8.60501 24.1028 8.63131 24.0416 8.63131 23.9777V13.4148H12.0536C12.1149 13.4153 12.1743 13.3939 12.2203 13.3549C12.2664 13.3159 12.296 13.2619 12.3034 13.2033L12.8637 9.01604C12.8712 8.98207 12.8695 8.94683 12.8589 8.91365C12.8483 8.88046 12.8291 8.85043 12.8031 8.82638C12.7812 8.79819 12.7526 8.77551 12.7196 8.76027C12.6867 8.74503 12.6504 8.73767 12.6138 8.73883H8.63131V6.62334C8.58168 6.05016 8.74544 5.47867 9.09319 5.01117C9.23039 4.87134 9.39776 4.76227 9.58355 4.69168C9.76933 4.62109 9.96898 4.5907 10.1683 4.60266H12.7501C12.8164 4.60266 12.8799 4.57731 12.9268 4.53216C12.9736 4.48701 13 4.42578 13 4.36193V0.583215C13 0.51868 12.9739 0.456671 12.9273 0.410361C12.8806 0.364052 12.8171 0.33708 12.7501 0.335182Z" fill="white"/>
</svg>
