<svg width="22" height="23" viewBox="0 0 22 23" fill="none" xmlns="http://www.w3.org/2000/svg">
<path d="M15.6661 0.254883H6.34124C4.66004 0.256823 3.04818 0.925534 1.85939 2.11432C0.670601 3.30311 0.00194022 4.9149 0 6.5961V15.921C0.00194022 17.6022 0.670601 19.214 1.85939 20.4028C3.04818 21.5916 4.66004 22.2603 6.34124 22.2622H15.6661C17.3466 22.2603 18.9576 21.5913 20.1453 20.4023C21.3329 19.2133 22 17.6015 22 15.921V6.5961C22 4.91558 21.3329 3.30377 20.1453 2.11477C18.9576 0.925772 17.3466 0.256826 15.6661 0.254883ZM19.7567 15.921C19.7567 17.0066 19.326 18.0478 18.5591 18.8161C17.7922 19.5844 16.7517 20.017 15.6661 20.019H6.34124C5.25498 20.017 4.21376 19.5846 3.44566 18.8165C2.67756 18.0485 2.24514 17.0072 2.24321 15.921V6.5961C2.24515 5.51053 2.6778 4.47007 3.44611 3.70314C4.21442 2.93621 5.25566 2.50546 6.34124 2.50547H15.6661C16.751 2.50547 17.7915 2.93644 18.5586 3.70359C19.3258 4.47073 19.7567 5.5112 19.7567 6.5961V15.921Z" fill="white"/>
<path d="M11.0038 6.1709C9.98881 6.1709 8.99663 6.47187 8.15274 7.03574C7.30885 7.59961 6.65115 8.40105 6.26275 9.33873C5.87435 10.2764 5.77265 11.3082 5.97066 12.3037C6.16866 13.2991 6.65742 14.2135 7.37509 14.9311C8.09276 15.6488 9.00712 16.1375 10.0026 16.3355C10.998 16.5335 12.0298 16.4319 12.9675 16.0435C13.9052 15.6551 14.7066 14.9974 15.2705 14.1535C15.8343 13.3096 16.1354 12.3175 16.1354 11.3025C16.1354 9.94153 15.5947 8.63628 14.6323 7.67391C13.67 6.71155 12.3647 6.1709 11.0038 6.1709ZM11.0038 14.0443C10.4568 14.0457 9.92171 13.8849 9.46625 13.5821C9.01079 13.2793 8.65541 12.8481 8.4451 12.3433C8.23479 11.8384 8.17902 11.2825 8.28483 10.7459C8.39064 10.2093 8.65335 9.71613 9.03957 9.32888C9.42579 8.94163 9.91816 8.67768 10.4545 8.57044C10.9908 8.46321 11.5469 8.5175 12.0523 8.72646C12.5577 8.93543 12.9898 9.28966 13.2939 9.74432C13.5979 10.199 13.7602 10.7336 13.7602 11.2805C13.7544 12.0084 13.4617 12.7047 12.9456 13.218C12.4295 13.7314 11.7317 14.0204 11.0038 14.0223V14.0443Z" fill="white"/>
<path d="M16.7291 3.9717C16.4287 3.97025 16.1346 4.05801 15.8841 4.22387C15.6336 4.38973 15.4379 4.62622 15.3219 4.90337C15.206 5.18053 15.1749 5.48588 15.2326 5.78072C15.2904 6.07557 15.4343 6.34664 15.6462 6.5596C15.8582 6.77256 16.1285 6.91781 16.4231 6.97696C16.7177 7.03611 17.0232 7.0065 17.3009 6.89186C17.5786 6.77722 17.816 6.58273 17.9831 6.33302C18.1501 6.08332 18.2393 5.78963 18.2393 5.48919C18.2394 5.08799 18.0805 4.70312 17.7975 4.41874C17.5145 4.13437 17.1303 3.97364 16.7291 3.9717Z" fill="white"/>
</svg>
