<svg width="18" height="17" viewBox="0 0 18 17" fill="none" xmlns="http://www.w3.org/2000/svg">
<path d="M4.36477 5.11865H1.15625V16.2547H4.36477V5.11865Z" fill="white"/>
<path d="M2.76042 0.254897C2.41164 0.253477 2.07033 0.356949 1.77975 0.552185C1.48916 0.747421 1.26242 1.02563 1.1283 1.3515C0.994178 1.67737 0.958697 2.03621 1.0264 2.38251C1.0941 2.7288 1.26194 3.04694 1.50857 3.29656C1.7552 3.54617 2.0695 3.71601 2.41165 3.78453C2.7538 3.85305 3.10836 3.81716 3.43033 3.68142C3.75229 3.54567 4.02713 3.31618 4.22002 3.02207C4.41292 2.72796 4.51518 2.38249 4.51377 2.02948C4.51377 1.55883 4.32905 1.10746 4.00023 0.774664C3.67142 0.441864 3.22543 0.254897 2.76042 0.254897Z" fill="white"/>
<path d="M14.3737 5.07566C13.5814 4.8024 12.7276 4.76902 11.9169 4.97958C11.1061 5.19015 10.3737 5.63552 9.80936 6.26113L9.41185 4.82422H6.50854V16.2836H9.94423V9.48699C9.94423 8.99919 10.1357 8.53138 10.4764 8.18645C10.8172 7.84153 11.2795 7.64774 11.7614 7.64774C12.0003 7.64679 12.2371 7.69371 12.458 7.78581C12.6788 7.8779 12.8795 8.01335 13.0485 8.18433C13.2174 8.35531 13.3512 8.55844 13.4422 8.78202C13.5332 9.00559 13.5796 9.24519 13.5787 9.48699V16.2836H17.0214V10.5359C17.0214 10.5359 17.3622 5.93062 14.3737 5.07566Z" fill="white"/>
</svg>
