<svg
  width="21"
  height="19"
  viewBox="0 0 21 19"
  fill="none"
  xmlns="http://www.w3.org/2000/svg"
>
  <path
    d="M8.5 8.5C10.71 8.5 12.5 6.71 12.5 4.5C12.5 2.29 10.71 0.5 8.5 0.5C6.29 0.5 4.5 2.29 4.5 4.5C4.5 6.71 6.29 8.5 8.5 8.5ZM8.5 2.5C9.6 2.5 10.5 3.4 10.5 4.5C10.5 5.6 9.6 6.5 8.5 6.5C7.4 6.5 6.5 5.6 6.5 4.5C6.5 3.4 7.4 2.5 8.5 2.5Z"
    fill="#6851FF"
  />
  <path
    d="M2.5 14.5C2.72 13.78 5.81 12.5 8.5 12.5C8.5 11.8 8.63 11.13 8.85 10.51C6.12 10.41 0.5 11.77 0.5 14.5V16.5H10.04C9.52 15.92 9.11 15.25 8.85 14.5H2.5Z"
    fill="#6851FF"
  />
  <path
    d="M17.93 14.52C18.29 13.93 18.5 13.24 18.5 12.5C18.5 10.29 16.71 8.5 14.5 8.5C12.29 8.5 10.5 10.29 10.5 12.5C10.5 14.71 12.29 16.5 14.5 16.5C15.24 16.5 15.93 16.28 16.52 15.93C17.45 16.86 18.14 17.55 19.09 18.5L20.5 17.09C19 15.59 19.71 16.29 17.93 14.52ZM14.5 14.5C13.4 14.5 12.5 13.6 12.5 12.5C12.5 11.4 13.4 10.5 14.5 10.5C15.6 10.5 16.5 11.4 16.5 12.5C16.5 13.6 15.6 14.5 14.5 14.5Z"
    fill="#6851FF"
  />
</svg>
