<svg width="27" height="27" viewBox="0 0 27 27" fill="none" xmlns="http://www.w3.org/2000/svg">
<path d="M18.4697 16.0116L16.1919 14.967C16.092 14.9208 15.9816 14.9018 15.8721 14.912C15.7625 14.9222 15.6576 14.9612 15.5679 15.025L14.6757 15.6707C14.5419 15.766 14.3844 15.8225 14.2206 15.834C14.0567 15.8455 13.8929 15.8116 13.7471 15.736C12.5915 14.7448 11.5146 13.6655 10.5261 12.5077C10.4503 12.3633 10.4162 12.2005 10.4278 12.0378C10.4393 11.875 10.496 11.7187 10.5914 11.5864L11.237 10.6869C11.3009 10.5972 11.3398 10.4923 11.35 10.3827C11.3602 10.2732 11.3413 10.1629 11.2951 10.063L10.2504 7.78508C10.1929 7.65301 10.0972 7.54109 9.97579 7.46357C9.85434 7.38605 9.71256 7.34644 9.56852 7.34981H8.84308C8.74633 7.34769 8.65012 7.36497 8.56014 7.40059C7.15278 8.00271 7.23982 9.75103 7.23982 9.75103C7.23982 12.3409 9.41616 14.7276 10.41 15.7287C11.3023 16.6718 13.8051 19.0513 16.5328 19.0513C16.5328 19.0513 18.2811 19.1383 18.8832 17.7309C18.9213 17.6415 18.9411 17.5453 18.9413 17.448V16.7226C18.9479 16.5695 18.9058 16.4182 18.8211 16.2905C18.7364 16.1627 18.6133 16.0651 18.4697 16.0116Z" fill="white"/>
<path d="M0 26.255L2.26339 19.1964C0.745446 16.5209 0.24878 13.3858 0.865408 10.372C1.48204 7.35828 3.17014 4.67019 5.61698 2.80583C8.06383 0.941469 11.1035 0.0272121 14.1729 0.232454C17.2422 0.437697 20.1331 1.74852 22.3099 3.92206C24.4867 6.0956 25.8019 8.98451 26.0118 12.0535C26.2217 15.1225 25.312 18.1636 23.4513 20.6133C21.5907 23.0629 18.9052 24.7551 15.8924 25.3763C12.8796 25.9975 9.74371 25.5055 7.06584 23.9916L0 26.255ZM7.36325 21.5179L7.81303 21.7935C9.98556 23.1452 12.5794 23.6507 15.1005 23.2137C17.6216 22.7767 19.8939 21.4278 21.4848 19.4238C23.0757 17.4198 23.874 14.9007 23.7277 12.3461C23.5814 9.79162 22.5007 7.38013 20.6914 5.57085C18.8822 3.76158 16.4707 2.68089 13.9161 2.53459C11.3616 2.38828 8.84253 3.18658 6.83852 4.77746C4.83451 6.36835 3.48556 8.64069 3.04857 11.1618C2.61157 13.6829 3.11705 16.2767 4.46873 18.4492L4.7444 18.899L3.51114 22.7511L7.36325 21.5179Z" fill="white"/>
</svg>
